<svg xmlns="http://www.w3.org/2000/svg" viewBox="0 0 525.153 525.153"><path d="M288.812 131.288h-52.471V236.34H131.288v52.471H236.34v105.052h52.471V288.812h105.052v-52.471H288.812V131.288zM262.576 0C117.897 0 0 117.897 0 262.576c0 144.658 117.897 262.576 262.576 262.576h210.061c28.883 0 52.515-23.632 52.515-52.515V262.576C525.153 117.897 407.234 0 262.576 0zm0 472.637c-115.818 0-210.061-94.243-210.061-210.061S146.758 52.515 262.576 52.515s210.061 94.243 210.061 210.061-94.243 210.061-210.061 210.061z" fill="#FFF"/></svg>